<?xml version="1.0" encoding="UTF-8"?>
<!-- Generator: visioncortex VTracer 0.6.3 -->
<svg version="1.1" xmlns="http://www.w3.org/2000/svg" width="1280" height="939">
<path d="M0 0 C1.17 -0 2.34 -0.01 3.55 -0.01 C4.84 -0.01 6.14 -0 7.48 -0 C8.86 -0 10.24 -0 11.62 -0.01 C15.44 -0.01 19.25 -0.01 23.06 -0 C27.17 -0 31.28 -0.01 35.38 -0.01 C43.44 -0.01 51.49 -0.01 59.54 -0.01 C66.09 -0.01 72.63 -0.01 79.18 -0.01 C80.11 -0.01 81.04 -0.01 82 -0.01 C83.88 -0.01 85.77 -0.01 87.66 -0.01 C105.4 -0.01 123.14 -0.01 140.88 -0 C156.11 0 171.33 0 186.55 -0 C204.22 -0.01 221.89 -0.01 239.55 -0.01 C241.44 -0.01 243.32 -0.01 245.21 -0.01 C246.13 -0.01 247.06 -0.01 248.02 -0.01 C254.55 -0.01 261.09 -0.01 267.62 -0.01 C275.59 -0.01 283.56 -0.01 291.52 -0.01 C295.59 -0 299.65 -0 303.72 -0.01 C307.44 -0.01 311.17 -0.01 314.89 -0 C316.87 -0 318.85 -0 320.84 -0.01 C333 0.02 333 0.02 337.53 1.13 C339.91 4.71 339.81 7.26 339.78 11.4 C339.79 12.5 339.79 12.5 339.8 13.63 C339.8 16.07 339.8 18.5 339.79 20.94 C339.79 22.63 339.79 24.32 339.8 26.02 C339.8 29.56 339.8 33.11 339.79 36.66 C339.78 41.21 339.78 45.76 339.79 50.31 C339.8 53.8 339.8 57.3 339.79 60.79 C339.79 62.47 339.79 64.15 339.8 65.83 C339.8 68.17 339.8 70.51 339.78 72.86 C339.79 73.55 339.79 74.25 339.8 74.96 C339.76 79.64 338.87 81.78 335.53 85.13 C331.19 85.44 329.2 85.57 325.53 83.13 C324.06 76.08 324.41 68.86 324.46 61.69 C324.47 59.78 324.47 59.78 324.47 57.83 C324.49 53.78 324.51 49.74 324.53 45.69 C324.55 40.34 324.57 34.98 324.59 29.63 C324.6 28.39 324.61 27.15 324.61 25.88 C324.62 24.17 324.62 24.17 324.62 22.44 C324.63 21.43 324.63 20.43 324.64 19.39 C324.78 17.16 324.78 17.16 323.53 16.13 C321.83 16.03 320.14 16 318.44 16 C317.33 16 316.22 15.99 315.08 15.99 C313.84 15.99 312.61 16 311.34 16 C310.04 16 308.74 16 307.4 15.99 C303.78 15.99 300.16 15.99 296.54 16 C292.64 16 288.74 15.99 284.84 15.99 C277.2 15.99 269.55 15.99 261.91 15.99 C255.7 15.99 249.49 15.99 243.28 15.99 C242.39 15.99 241.51 15.99 240.6 15.99 C238.81 15.99 237.02 15.99 235.23 15.99 C218.41 15.99 201.58 15.99 184.76 16 C170.31 16 155.86 16 141.41 16 C124.65 15.99 107.89 15.99 91.13 15.99 C89.35 15.99 87.56 15.99 85.78 15.99 C84.46 15.99 84.46 15.99 83.11 15.99 C76.91 15.99 70.7 15.99 64.49 15.99 C56.93 15.99 49.38 15.99 41.82 15.99 C37.96 16 34.1 16 30.24 15.99 C26.06 15.99 21.89 15.99 17.71 16 C16.48 16 15.24 15.99 13.97 15.99 C12.31 16 12.31 16 10.61 16 C9.65 16 8.68 16 7.69 16 C5.55 15.88 5.55 15.88 4.53 17.13 C4.43 18.88 4.4 20.63 4.4 22.39 C4.4 23.54 4.4 24.68 4.4 25.87 C4.4 27.14 4.4 28.42 4.41 29.74 C4.41 31.09 4.4 32.45 4.4 33.81 C4.4 37.56 4.4 41.31 4.41 45.06 C4.41 49.09 4.41 53.13 4.41 57.16 C4.41 64.16 4.41 71.16 4.42 78.16 C4.43 88.28 4.43 98.4 4.43 108.52 C4.43 124.93 4.44 141.35 4.45 157.77 C4.46 173.72 4.47 189.67 4.47 205.62 C4.47 206.6 4.47 207.58 4.47 208.59 C4.47 213.52 4.47 218.45 4.48 223.38 C4.49 264.29 4.5 305.21 4.53 346.13 C7.08 347.4 8.86 347.25 11.72 347.25 C12.83 347.25 13.94 347.25 15.08 347.25 C16.31 347.25 17.54 347.25 18.8 347.25 C20.75 347.25 20.75 347.25 22.73 347.25 C26.34 347.25 29.95 347.25 33.56 347.24 C37.45 347.24 41.33 347.24 45.22 347.24 C51.96 347.24 58.7 347.24 65.44 347.23 C75.19 347.22 84.94 347.22 94.68 347.22 C110.49 347.22 126.3 347.21 142.11 347.2 C157.48 347.19 172.84 347.19 188.2 347.18 C189.62 347.18 189.62 347.18 191.07 347.18 C195.81 347.18 200.56 347.18 205.31 347.18 C244.71 347.17 284.12 347.15 323.53 347.13 C323.54 346.32 323.55 345.51 323.56 344.68 C323.66 337.07 323.76 329.46 323.87 321.86 C323.92 317.95 323.97 314.03 324.02 310.12 C324.07 306.35 324.12 302.58 324.18 298.8 C324.2 297.36 324.22 295.92 324.24 294.48 C324.26 292.46 324.29 290.45 324.32 288.43 C324.34 286.71 324.34 286.71 324.37 284.95 C324.53 282.13 324.53 282.13 325.53 279.13 C328.05 277.86 329.84 278.03 332.65 278.06 C333.56 278.07 334.47 278.08 335.41 278.09 C336.46 278.11 336.46 278.11 337.53 278.13 C337.53 278.79 337.53 279.45 337.53 280.13 C338.19 280.13 338.85 280.13 339.53 280.13 C339.57 290.52 339.61 300.92 339.63 311.31 C339.64 316.14 339.65 320.97 339.68 325.8 C339.7 330.45 339.71 335.11 339.72 339.76 C339.72 341.54 339.73 343.32 339.74 345.1 C339.75 347.58 339.75 350.07 339.75 352.56 C339.76 353.3 339.77 354.04 339.77 354.8 C339.75 359.9 339.75 359.9 337.53 362.13 C337.2 361.8 336.87 361.47 336.53 361.13 C334.69 361.03 332.84 361.01 331 361.02 C329.79 361.02 328.58 361.02 327.34 361.02 C325.98 361.03 324.63 361.04 323.27 361.04 C321.84 361.05 320.41 361.05 318.99 361.05 C315.04 361.06 311.1 361.08 307.16 361.09 C302.91 361.11 298.67 361.12 294.42 361.13 C287.06 361.15 279.7 361.18 272.34 361.21 C261.7 361.24 251.06 361.28 240.42 361.31 C223.15 361.36 205.89 361.42 188.62 361.48 C171.85 361.54 155.07 361.59 138.3 361.64 C137.27 361.65 136.23 361.65 135.17 361.65 C129.98 361.67 124.8 361.69 119.62 361.7 C76.59 361.84 33.56 361.98 -9.47 362.13 C-11.26 358.28 -11.73 355.25 -11.73 351.02 C-11.74 349.79 -11.74 348.56 -11.75 347.29 C-11.75 345.92 -11.74 344.55 -11.74 343.19 C-11.75 341.73 -11.75 340.28 -11.76 338.83 C-11.77 334.83 -11.77 330.84 -11.76 326.85 C-11.76 322.54 -11.78 318.23 -11.78 313.92 C-11.8 305.48 -11.81 297.05 -11.81 288.61 C-11.81 281.75 -11.81 274.9 -11.82 268.04 C-11.84 248.61 -11.85 229.18 -11.84 209.75 C-11.84 208.7 -11.84 207.66 -11.84 206.58 C-11.84 205.53 -11.84 204.48 -11.84 203.4 C-11.84 186.39 -11.86 169.38 -11.89 152.37 C-11.92 134.91 -11.93 117.46 -11.93 100 C-11.93 90.19 -11.94 80.39 -11.96 70.58 C-11.98 62.24 -11.98 53.9 -11.97 45.55 C-11.96 41.29 -11.96 37.03 -11.98 32.77 C-11.99 28.87 -11.99 24.98 -11.97 21.08 C-11.97 19.67 -11.97 18.26 -11.98 16.85 C-12 14.93 -11.99 13.02 -11.97 11.1 C-11.97 10.04 -11.97 8.97 -11.97 7.87 C-11.35 4.44 -10.15 3.29 -7.47 1.13 C-4.85 -0.18 -2.93 0 0 0 Z M5.53 13.13 C5.53 13.46 5.53 13.79 5.53 14.13 C9.82 14.13 14.11 14.13 18.53 14.13 C18.53 13.8 18.53 13.47 18.53 13.13 C14.24 13.13 9.95 13.13 5.53 13.13 Z M1.53 15.13 C1.53 124.03 1.53 232.93 1.53 345.13 C1.86 345.13 2.19 345.13 2.53 345.13 C2.53 236.23 2.53 127.33 2.53 15.13 C2.2 15.13 1.87 15.13 1.53 15.13 Z M328.53 83.13 C332.53 84.13 332.53 84.13 332.53 84.13 Z M336.53 280.13 C337.53 282.13 337.53 282.13 337.53 282.13 Z " fill="#6F5097" transform="translate(311.47397899627686,286.87415885925293)"/>
<path d="M0 0 C4.22 -0.05 8.43 -0.09 12.65 -0.11 C14.09 -0.12 15.52 -0.13 16.96 -0.15 C19.02 -0.18 21.08 -0.19 23.14 -0.2 C24.39 -0.21 25.63 -0.22 26.91 -0.23 C30 0 30 0 33 2 C34.19 4.12 34.19 4.12 35 6 C35.66 6 36.32 6 37 6 C38.47 8.01 38.47 8.01 40.06 10.69 C40.59 11.56 41.12 12.43 41.66 13.32 C42.97 15.93 43.58 18.13 44 21 C44.99 21.33 45.98 21.66 47 22 C47.89 24.67 48.48 27.24 49 30 C49.99 30.33 50.98 30.66 52 31 C53.65 33.34 54.84 35.33 55.5 38.12 C55.84 40.09 55.84 40.09 57.44 41.25 C59.24 43.27 59.41 44.44 59.94 47.06 C60.57 50.36 60.57 50.36 63.12 52.5 C63.74 52.67 64.36 52.83 65 53 C65 53.99 65 54.98 65 56 C66.49 56.99 66.49 56.99 68 58 C68.56 59.94 68.56 59.94 69 62 C69.66 62.99 70.32 63.98 71 65 C71.31 65.85 71.62 66.69 71.94 67.56 C72.87 70.31 72.87 70.31 76 72 C76 72.99 76 73.98 76 75 C76.64 75.64 77.28 76.28 77.94 76.94 C80.14 79.14 80.32 80.09 81 83 C82.49 83.99 82.49 83.99 84 85 C84.19 88.12 84.19 88.12 84 91 C85.49 91.5 85.49 91.5 87 92 C87.33 92.66 87.66 93.32 88 94 C88.66 94.8 89.32 95.61 90 96.44 C92 99 92 99 93 102 C94.42 105.4 96.37 107.45 99 110 C99.01 108.68 99.02 107.36 99.02 106 C99.1 93.58 99.19 81.16 99.29 68.75 C99.34 62.36 99.38 55.98 99.42 49.59 C99.46 43.43 99.51 37.27 99.56 31.11 C99.58 28.76 99.59 26.41 99.6 24.05 C99.62 20.76 99.65 17.47 99.68 14.18 C99.68 13.21 99.69 12.23 99.69 11.22 C99.7 10.33 99.71 9.43 99.72 8.51 C99.73 7.34 99.73 7.34 99.74 6.15 C100.03 3.74 100.8 2.09 102 0 C105.95 -0.05 109.9 -0.09 113.85 -0.11 C115.86 -0.12 117.87 -0.15 119.87 -0.18 C121.13 -0.18 122.38 -0.19 123.68 -0.2 C124.84 -0.21 126 -0.22 127.2 -0.23 C130 0 130 0 132 2 C132.25 4.93 132.25 4.93 132.25 8.76 C132.26 9.81 132.26 9.81 132.26 10.89 C132.27 13.25 132.27 15.62 132.26 17.98 C132.26 19.68 132.27 21.37 132.27 23.06 C132.28 27.66 132.27 32.27 132.27 36.87 C132.26 41.68 132.27 46.49 132.27 51.3 C132.28 59.37 132.27 67.45 132.26 75.53 C132.25 84.88 132.25 94.22 132.26 103.57 C132.27 111.59 132.27 119.6 132.27 127.62 C132.27 132.41 132.27 137.2 132.27 142 C132.28 146.5 132.27 151 132.26 155.51 C132.26 157.17 132.26 158.82 132.27 160.48 C132.27 162.73 132.26 164.99 132.25 167.24 C132.25 169.14 132.25 169.14 132.25 171.07 C132 174 132 174 130 176 C125.94 176.45 121.87 176.41 117.79 176.43 C115.77 176.44 113.76 176.49 111.74 176.54 C100.83 176.6 100.83 176.6 97.44 174.09 C94.2 169.99 91.67 165.72 89.19 161.12 C88.12 159.21 87.06 157.3 85.99 155.38 C85.22 153.99 85.22 153.99 84.43 152.56 C82.63 149.33 80.74 146.16 78.81 143 C74.45 135.79 70.19 128.52 65.94 121.25 C60.46 111.89 54.97 102.54 49.45 93.21 C48.48 91.57 47.5 89.92 46.53 88.27 C42.1 80.8 37.57 73.39 33 66 C32.01 66.5 32.01 66.5 31 67 C31 67.55 30.99 68.1 30.99 68.67 C30.88 82.03 30.78 95.39 30.66 108.75 C30.61 115.21 30.55 121.67 30.5 128.13 C30.46 134.36 30.4 140.6 30.35 146.83 C30.33 149.21 30.31 151.59 30.29 153.97 C30.27 157.3 30.24 160.62 30.21 163.95 C30.2 164.94 30.19 165.94 30.19 166.96 C30.17 168.32 30.17 168.32 30.16 169.7 C30.15 170.48 30.15 171.27 30.14 172.08 C30 174 30 174 29 176 C24.58 176.09 20.17 176.14 15.75 176.19 C14.5 176.21 13.24 176.24 11.95 176.26 C10.14 176.28 10.14 176.28 8.3 176.29 C6.63 176.32 6.63 176.32 4.93 176.34 C1.52 175.94 0.38 175.46 -2 173 C-2.48 169.97 -2.48 169.97 -2.45 166.16 C-2.45 165.46 -2.45 164.76 -2.45 164.04 C-2.45 161.69 -2.41 159.34 -2.38 156.99 C-2.37 155.31 -2.36 153.63 -2.36 151.95 C-2.33 147.38 -2.29 142.8 -2.24 138.23 C-2.19 133.45 -2.16 128.68 -2.13 123.9 C-2.08 115.87 -2.01 107.85 -1.93 99.82 C-1.83 89.51 -1.75 79.21 -1.68 68.9 C-1.62 60.04 -1.55 51.19 -1.48 42.34 C-1.46 40.44 -1.45 38.54 -1.44 36.63 C-1.39 31.21 -1.35 25.79 -1.29 20.37 C-1.28 18.72 -1.26 17.07 -1.25 15.43 C-1.23 13.19 -1.21 10.95 -1.19 8.71 C-1.17 7.46 -1.16 6.2 -1.15 4.91 C-1 2 -1 2 0 0 Z M2 174 C2 174.33 2 174.66 2 175 C9.26 175 16.52 175 24 175 C24 174.67 24 174.34 24 174 C16.74 174 9.48 174 2 174 Z M101 174 C101 174.33 101 174.66 101 175 C108.92 175 116.84 175 125 175 C125 174.67 125 174.34 125 174 C117.08 174 109.16 174 101 174 Z " fill="#6C4D95" transform="translate(809,380)"/>
<path d="M0 0 C8.18 -0.02 16.36 -0.04 24.54 -0.05 C28.34 -0.06 32.15 -0.06 35.95 -0.08 C73.6 -0.19 105.94 0.13 135.52 26.27 C137 28 137 28 137 31 C138.31 32.03 139.65 33.02 141 34 C144.94 38.43 148.12 43.35 150 49 C150.66 49.33 151.32 49.66 152 50 C158.16 62.68 160.14 74.51 160.25 88.56 C160.26 89.52 160.27 90.48 160.28 91.46 C160.2 108.66 160.2 108.66 156.53 112.56 C156.03 113.04 155.52 113.51 155 114 C154.06 115.87 154.06 115.87 153.34 117.96 C149.05 129.26 144.08 138.01 136 147 C135.33 147.77 134.66 148.53 133.98 149.32 C126.57 157.29 116.87 163.55 107 168 C107 168.66 107 169.32 107 170 C102.88 172 99.55 172.18 95 172 C94.67 172.66 94.34 173.32 94 174 C87.94 175.93 82.21 176.36 75.88 176.48 C74.94 176.51 74.01 176.53 73.04 176.56 C71.07 176.61 69.1 176.65 67.13 176.69 C64.11 176.75 61.09 176.83 58.07 176.92 C56.15 176.96 54.24 177.01 52.32 177.05 C50.96 177.09 50.96 177.09 49.58 177.13 C48.33 177.15 48.33 177.15 47.05 177.17 C46.31 177.18 45.58 177.2 44.82 177.22 C43 177 43 177 41 175 C41.23 168.58 43.78 163.08 46.31 157.25 C46.7 156.31 47.09 155.36 47.5 154.39 C47.89 153.48 48.28 152.57 48.68 151.64 C49.03 150.82 49.38 150 49.74 149.16 C51.21 146.64 52.47 145.46 55 144 C57.22 143.6 57.22 143.6 59.63 143.56 C60.97 143.52 60.97 143.52 62.33 143.48 C63.25 143.46 64.17 143.45 65.12 143.44 C75.34 143.24 84.53 141.96 94 138 C94.65 137.74 95.31 137.48 95.98 137.21 C98.78 136.07 100.84 135.16 103 133 C103.85 132.5 104.69 132.01 105.56 131.5 C108.1 130.23 108.1 130.23 109 128 C109.66 128 110.32 128 111 128 C111 127.34 111 126.68 111 126 C111.91 125.3 112.81 124.6 113.75 123.88 C117.53 120.83 119.15 117.42 121 113 C121.36 112.15 121.72 111.31 122.1 110.44 C127.71 96.91 127.99 81.49 123.17 67.63 C122.04 64.93 122.04 64.93 120.36 62.34 C119 60 119 60 119 57 C118.34 57 117.68 57 117 57 C116.63 56.1 116.63 56.1 116.25 55.19 C114.84 52.71 113.27 51.67 111 50 C111 49.34 111 48.68 111 48 C110.34 48 109.68 48 109 48 C108.01 46.02 108.01 46.02 107 44 C106.01 44 105.02 44 104 44 C102.74 43.13 101.51 42.2 100.31 41.25 C87.17 32.38 70.77 33.47 55.62 33.69 C53.55 33.7 51.47 33.71 49.39 33.72 C47.42 33.73 45.45 33.75 43.48 33.76 C42.09 33.77 42.09 33.77 40.68 33.78 C39.4 33.8 39.4 33.8 38.1 33.82 C37.36 33.83 36.61 33.84 35.84 33.85 C33.9 33.89 33.9 33.89 32 35 C31.96 36.87 31.96 36.87 31.92 38.77 C31.83 43.44 31.73 48.1 31.63 52.77 C31.58 54.78 31.54 56.79 31.5 58.8 C31.44 61.71 31.38 64.61 31.32 67.52 C31.3 68.4 31.28 69.29 31.27 70.2 C31.17 74.47 30.95 78.68 30.5 82.93 C29.68 91.46 29.74 100.04 29.65 108.6 C29.63 110.48 29.6 112.37 29.58 114.25 C29.53 118.18 29.49 122.11 29.44 126.04 C29.39 131.08 29.32 136.12 29.26 141.16 C29.21 145.04 29.16 148.92 29.12 152.8 C29.1 154.66 29.07 156.52 29.05 158.38 C29.02 160.97 28.99 163.56 28.96 166.14 C28.95 166.92 28.94 167.69 28.93 168.48 C28.82 172.37 28.82 172.37 30 176 C25.53 178.23 19.47 177.27 14.56 177.31 C13.31 177.34 12.06 177.37 10.76 177.4 C9.56 177.41 8.36 177.42 7.13 177.43 C6.03 177.44 4.92 177.45 3.79 177.47 C1 177 1 177 -0.65 175.39 C-2.45 172.2 -2.37 169.89 -2.37 166.22 C-2.38 165.54 -2.38 164.86 -2.39 164.16 C-2.4 161.87 -2.38 159.59 -2.37 157.31 C-2.37 155.67 -2.38 154.04 -2.38 152.4 C-2.39 147.96 -2.38 143.51 -2.37 139.07 C-2.36 134.42 -2.36 129.77 -2.36 125.12 C-2.37 117.3 -2.35 109.49 -2.34 101.68 C-2.32 92.65 -2.31 83.62 -2.32 74.59 C-2.32 65.9 -2.32 57.22 -2.31 48.53 C-2.3 44.83 -2.3 41.14 -2.3 37.44 C-2.31 33.08 -2.3 28.73 -2.28 24.37 C-2.28 22.78 -2.28 21.18 -2.28 19.58 C-2.28 17.4 -2.27 15.22 -2.26 13.03 C-2.26 11.81 -2.26 10.59 -2.25 9.34 C-1.99 5.92 -1.22 3.18 0 0 Z M33 31 C33 31.33 33 31.66 33 32 C47.85 32 62.7 32 78 32 C78 31.67 78 31.34 78 31 C63.15 31 48.3 31 33 31 Z M29 33 C29 47.85 29 62.7 29 78 C29.33 78 29.66 78 30 78 C30 63.15 30 48.3 30 33 C29.67 33 29.34 33 29 33 Z M146 43 C147 45 147 45 147 45 Z M158 86 C159 89 159 89 159 89 Z M157 101 C158 104 158 104 158 104 Z M84 173 C84 173.33 84 173.66 84 174 C85.98 174 87.96 174 90 174 C90 173.67 90 173.34 90 173 C88.02 173 86.04 173 84 173 Z M53 174 C53 174.33 53 174.66 53 175 C61.91 175 70.82 175 80 175 C80 174.67 80 174.34 80 174 C71.09 174 62.18 174 53 174 Z " fill="#6F5097" transform="translate(346,380)"/>
<path d="M0 0 C1.05 -0.03 2.09 -0.06 3.17 -0.09 C4.68 -0.1 4.68 -0.1 6.22 -0.11 C7.14 -0.13 8.05 -0.14 9 -0.16 C12.37 0.48 13.39 1.63 15.5 4.31 C16.02 7.34 16.02 7.34 16.05 10.92 C16.06 11.58 16.07 12.25 16.08 12.93 C16.11 15.07 16.11 17.22 16.11 19.36 C16.13 20.67 16.14 21.99 16.16 23.34 C16.21 28.25 16.23 33.15 16.25 38.06 C16.33 49.03 16.41 60.01 16.5 71.31 C49.66 71.81 49.66 71.81 83.5 72.31 C83.5 49.54 83.5 26.77 83.5 3.31 C90.26 -0.07 90.26 -0.07 94.98 -0.09 C95.98 -0.09 96.98 -0.09 98.01 -0.1 C99.55 -0.08 99.55 -0.08 101.12 -0.06 C102.16 -0.07 103.2 -0.09 104.27 -0.1 C105.26 -0.09 106.26 -0.09 107.29 -0.09 C108.19 -0.08 109.1 -0.08 110.03 -0.08 C113.12 0.41 114.3 1.08 116.5 3.31 C116.99 6.35 116.99 6.35 116.98 10.17 C116.98 10.87 116.99 11.57 116.99 12.29 C117 14.64 116.98 17 116.95 19.35 C116.95 21.04 116.95 22.72 116.96 24.41 C116.96 28.99 116.93 33.57 116.91 38.15 C116.88 42.93 116.88 47.72 116.87 52.5 C116.86 61.56 116.83 70.63 116.79 79.69 C116.74 90.01 116.72 100.32 116.7 110.64 C116.66 131.86 116.59 153.09 116.5 174.31 C115.84 174.64 115.18 174.97 114.5 175.31 C114.17 175.97 113.84 176.63 113.5 177.31 C109.23 177.4 104.96 177.45 100.69 177.5 C99.47 177.53 98.26 177.55 97.01 177.58 C95.26 177.59 95.26 177.59 93.48 177.61 C91.87 177.63 91.87 177.63 90.23 177.65 C87.5 177.31 87.5 177.31 85.86 176.21 C83.84 173.39 84.1 171.08 84.07 167.64 C84.05 166.63 84.05 166.63 84.04 165.6 C84.01 163.37 84 161.15 83.99 158.93 C83.97 157.38 83.95 155.84 83.93 154.3 C83.89 150.24 83.86 146.18 83.83 142.12 C83.8 137.98 83.75 133.84 83.71 129.69 C83.62 121.57 83.56 113.44 83.5 105.31 C77.33 105.29 71.17 105.27 65 105.26 C62.91 105.25 60.83 105.25 58.74 105.24 C44.62 105.18 30.59 105.5 16.5 106.31 C15.23 113.12 15.41 119.86 15.47 126.76 C15.48 128.73 15.49 130.7 15.5 132.67 C15.52 137.51 15.56 142.35 15.6 147.19 C15.62 149.91 15.63 152.64 15.64 155.36 C15.65 157.92 15.67 160.48 15.7 163.04 C15.7 164.2 15.71 165.36 15.71 166.55 C15.72 168.08 15.72 168.08 15.73 169.64 C15.49 172.39 15 174.01 13.5 176.31 C9.17 178.48 3.32 177.5 -1.44 177.5 C-3.25 177.52 -3.25 177.52 -5.09 177.54 C-6.82 177.54 -6.82 177.54 -8.59 177.54 C-10.18 177.55 -10.18 177.55 -11.8 177.56 C-14.5 177.31 -14.5 177.31 -17.5 175.31 C-17.87 172.39 -17.87 172.39 -17.87 168.56 C-17.88 167.85 -17.88 167.15 -17.89 166.43 C-17.9 164.06 -17.88 161.69 -17.87 159.33 C-17.87 157.64 -17.88 155.94 -17.88 154.25 C-17.89 149.65 -17.88 145.05 -17.87 140.44 C-17.86 135.63 -17.86 130.83 -17.86 126.02 C-17.87 117.94 -17.85 109.86 -17.84 101.79 C-17.82 92.44 -17.81 83.09 -17.82 73.74 C-17.82 64.76 -17.82 55.78 -17.81 46.8 C-17.8 42.97 -17.8 39.14 -17.8 35.32 C-17.81 30.81 -17.8 26.31 -17.78 21.8 C-17.78 20.15 -17.78 18.49 -17.78 16.83 C-17.78 14.58 -17.77 12.32 -17.76 10.07 C-17.76 8.81 -17.76 7.54 -17.75 6.24 C-17.5 3.31 -17.5 3.31 -15.5 1.31 C-10.55 -0.37 -5.17 0.05 0 0 Z M114.5 5.31 C114.5 59.1 114.5 112.89 114.5 168.31 C114.83 168.31 115.16 168.31 115.5 168.31 C115.5 114.52 115.5 60.73 115.5 5.31 C115.17 5.31 114.84 5.31 114.5 5.31 Z M12.5 106.31 C13.5 108.31 13.5 108.31 13.5 108.31 Z M12.5 170.31 C12.5 171.63 12.5 172.95 12.5 174.31 C11.51 174.64 10.52 174.97 9.5 175.31 C10.82 175.31 12.14 175.31 13.5 175.31 C13.5 173.66 13.5 172.01 13.5 170.31 C13.17 170.31 12.84 170.31 12.5 170.31 Z M87.5 174.31 C87.5 174.64 87.5 174.97 87.5 175.31 C90.47 175.31 93.44 175.31 96.5 175.31 C96.5 174.98 96.5 174.65 96.5 174.31 C93.53 174.31 90.56 174.31 87.5 174.31 Z M98.5 174.31 C98.5 174.64 98.5 174.97 98.5 175.31 C100.48 175.31 102.46 175.31 104.5 175.31 C104.5 174.98 104.5 174.65 104.5 174.31 C102.52 174.31 100.54 174.31 98.5 174.31 Z " fill="#6C4D95" transform="translate(535.5,379.6875)"/>
<path d="M0 0 C1.83 -0 1.83 -0 3.69 -0.01 C7.01 -0.01 10.34 0 13.66 0.02 C17.14 0.03 20.62 0.03 24.1 0.03 C29.94 0.04 35.78 0.05 41.62 0.08 C49.13 0.1 56.63 0.11 64.13 0.12 C70.58 0.12 77.03 0.14 83.48 0.15 C85.55 0.15 87.62 0.16 89.7 0.16 C93.56 0.16 97.41 0.18 101.27 0.2 C102.42 0.2 103.57 0.2 104.76 0.2 C106.33 0.21 106.33 0.21 107.93 0.22 C108.84 0.22 109.75 0.22 110.69 0.23 C112.88 0.36 112.88 0.36 114.88 1.36 C114.88 2.02 114.88 2.68 114.88 3.36 C115.54 3.36 116.2 3.36 116.88 3.36 C116.9 5.84 116.92 8.31 116.94 10.79 C116.95 11.5 116.96 12.21 116.96 12.94 C116.97 14.74 116.93 16.55 116.88 18.36 C116.55 18.69 116.22 19.02 115.88 19.36 C116.09 20.13 116.09 20.13 116.31 20.92 C117.12 24.42 116.91 27.76 116.88 31.36 C116.25 31.37 115.63 31.38 114.98 31.39 C108.51 31.5 102.04 31.61 95.57 31.73 C93.15 31.77 90.73 31.81 88.31 31.85 C84.85 31.91 81.38 31.98 77.91 32.04 C76.82 32.06 75.73 32.07 74.61 32.09 C73.61 32.11 72.61 32.13 71.58 32.15 C70.69 32.17 69.81 32.18 68.89 32.2 C66.88 32.14 66.88 32.14 65.88 33.36 C65.78 35.18 65.75 37 65.76 38.83 C65.75 40.02 65.75 41.21 65.75 42.43 C65.76 43.74 65.76 45.06 65.76 46.41 C65.76 47.8 65.76 49.19 65.76 50.58 C65.76 54.36 65.77 58.15 65.77 61.93 C65.78 65.88 65.78 69.83 65.78 73.78 C65.79 81.26 65.79 88.74 65.8 96.23 C65.82 104.74 65.82 113.26 65.83 121.78 C65.84 139.31 65.85 156.83 65.88 174.36 C65.22 174.69 64.56 175.02 63.88 175.36 C63.22 176.02 62.56 176.68 61.88 177.36 C59.4 177.62 59.4 177.62 56.32 177.62 C55.21 177.62 54.1 177.63 52.96 177.63 C51.8 177.62 50.64 177.61 49.44 177.61 C48.28 177.61 47.12 177.62 45.93 177.63 C44.82 177.63 43.71 177.62 42.57 177.62 C41.04 177.62 41.04 177.62 39.48 177.62 C36.88 177.36 36.88 177.36 33.88 175.36 C32.66 172.2 32.75 169.07 32.76 165.72 C32.76 164 32.76 164 32.76 162.24 C32.77 160.36 32.77 160.36 32.78 158.43 C32.78 157.09 32.78 155.76 32.78 154.42 C32.79 151.54 32.79 148.66 32.8 145.78 C32.81 141.23 32.82 136.68 32.82 132.13 C32.84 122.47 32.86 112.82 32.88 103.17 C32.9 92.74 32.92 82.31 32.93 71.88 C32.93 67.35 32.94 62.82 32.96 58.29 C32.97 55.49 32.97 52.68 32.97 49.87 C32.97 47.93 32.98 46 32.99 44.07 C32.99 42.36 32.99 42.36 32.99 40.61 C32.99 39.62 32.99 38.62 33 37.59 C33.13 35.38 33.13 35.38 31.88 34.36 C30.45 34.25 29.03 34.22 27.6 34.21 C26.7 34.21 25.79 34.2 24.85 34.19 C23.37 34.19 23.37 34.19 21.86 34.18 C19.78 34.16 17.71 34.13 15.63 34.11 C12.35 34.07 9.06 34.04 5.78 34.03 C2.61 34.02 -0.55 33.97 -3.71 33.93 C-4.69 33.93 -5.67 33.93 -6.68 33.94 C-13.4 33.82 -13.4 33.82 -16.75 31.7 C-18.51 28.7 -18.58 26.75 -18.51 23.28 C-18.5 22.12 -18.49 20.96 -18.48 19.76 C-18.44 18.56 -18.41 17.35 -18.37 16.11 C-18.35 14.27 -18.35 14.27 -18.32 12.4 C-18.27 9.39 -18.21 6.37 -18.12 3.36 C-12.35 -0.45 -6.75 -0.05 0 0 Z M113.88 11.36 C114.88 13.36 114.88 13.36 114.88 13.36 Z M114.88 23.36 C115.88 27.36 115.88 27.36 115.88 27.36 Z M-14.12 31.36 C-14.12 31.69 -14.12 32.02 -14.12 32.36 C-0.26 32.36 13.6 32.36 27.88 32.36 C27.88 32.03 27.88 31.7 27.88 31.36 C14.02 31.36 0.16 31.36 -14.12 31.36 Z " fill="#6D4D95" transform="translate(680.1240234375,379.6435546875)"/>
<path d="M0 0 C38.39 -0.05 76.78 -0.08 115.16 -0.1 C119.69 -0.1 124.22 -0.11 128.75 -0.11 C129.66 -0.11 130.56 -0.11 131.49 -0.11 C146.1 -0.12 160.71 -0.14 175.32 -0.15 C190.31 -0.17 205.29 -0.18 220.28 -0.19 C229.53 -0.19 238.78 -0.2 248.04 -0.22 C254.38 -0.23 260.72 -0.23 267.06 -0.23 C270.72 -0.23 274.38 -0.23 278.04 -0.24 C282 -0.25 285.97 -0.25 289.93 -0.24 C291.09 -0.25 292.25 -0.25 293.45 -0.26 C294.51 -0.25 295.57 -0.25 296.67 -0.25 C297.58 -0.25 298.5 -0.25 299.44 -0.25 C302.27 0.03 304.43 0.83 307 2 C306.67 2.99 306.34 3.98 306 5 C305.67 4.67 305.34 4.34 305 4 C303.31 3.9 301.61 3.87 299.91 3.87 C298.8 3.87 297.7 3.87 296.55 3.87 C295.32 3.87 294.09 3.87 292.81 3.87 C291.52 3.87 290.22 3.87 288.88 3.87 C285.26 3.86 281.64 3.87 278.01 3.87 C274.11 3.87 270.22 3.87 266.32 3.87 C258.67 3.86 251.03 3.86 243.38 3.86 C237.17 3.87 230.96 3.87 224.75 3.87 C223.87 3.87 222.99 3.87 222.08 3.87 C220.29 3.87 218.49 3.87 216.7 3.86 C199.88 3.86 183.06 3.87 166.24 3.87 C151.79 3.88 137.34 3.87 122.88 3.87 C106.13 3.86 89.37 3.86 72.61 3.87 C70.82 3.87 69.04 3.87 67.25 3.87 C65.93 3.87 65.93 3.87 64.59 3.87 C58.38 3.87 52.17 3.87 45.97 3.86 C38.41 3.86 30.85 3.86 23.29 3.87 C19.43 3.87 15.57 3.87 11.71 3.87 C7.54 3.86 3.36 3.87 -0.81 3.87 C-2.05 3.87 -3.28 3.87 -4.55 3.87 C-6.22 3.87 -6.22 3.87 -7.91 3.87 C-8.88 3.87 -9.84 3.87 -10.84 3.87 C-12.98 3.76 -12.98 3.76 -14 5 C-14.1 6.75 -14.13 8.5 -14.13 10.25 C-14.13 11.4 -14.13 12.55 -14.13 13.73 C-14.13 15 -14.13 16.28 -14.13 17.59 C-14.13 18.95 -14.13 20.3 -14.13 21.66 C-14.14 25.4 -14.13 29.14 -14.13 32.89 C-14.13 36.92 -14.13 40.95 -14.13 44.98 C-14.14 52.88 -14.14 60.78 -14.14 68.68 C-14.13 75.1 -14.13 81.53 -14.13 87.95 C-14.13 88.86 -14.13 89.77 -14.13 90.71 C-14.13 92.56 -14.13 94.42 -14.14 96.27 C-14.14 113.66 -14.13 131.06 -14.13 148.45 C-14.12 163.39 -14.13 178.33 -14.13 193.26 C-14.14 210.59 -14.14 227.92 -14.13 245.25 C-14.13 247.09 -14.13 248.94 -14.13 250.79 C-14.13 251.7 -14.13 252.6 -14.13 253.54 C-14.13 259.95 -14.13 266.37 -14.14 272.78 C-14.14 280.6 -14.14 288.41 -14.13 296.23 C-14.13 300.22 -14.13 304.21 -14.13 308.2 C-14.14 311.85 -14.13 315.5 -14.13 319.15 C-14.13 321.1 -14.13 323.05 -14.13 325.01 C-14.13 326.16 -14.13 327.31 -14.13 328.5 C-14.13 329.49 -14.13 330.49 -14.13 331.52 C-14.1 334.13 -14.1 334.13 -13 337 C-13.99 337 -14.98 337 -16 337 C-16.02 294.47 -16.04 251.93 -16.05 209.4 C-16.05 204.39 -16.05 199.37 -16.05 194.35 C-16.06 193.36 -16.06 192.36 -16.06 191.33 C-16.06 175.14 -16.07 158.95 -16.08 142.75 C-16.09 126.15 -16.09 109.55 -16.09 92.95 C-16.1 82.7 -16.1 72.45 -16.11 62.19 C-16.11 55.17 -16.11 48.15 -16.11 41.13 C-16.11 37.08 -16.11 33.02 -16.12 28.96 C-16.12 25.25 -16.12 21.55 -16.12 17.84 C-16.12 15.85 -16.12 13.86 -16.13 11.87 C-16.13 10.71 -16.13 9.54 -16.12 8.34 C-16.12 7.33 -16.12 6.31 -16.12 5.27 C-16 3 -16 3 -15 2 C-12.47 1.93 -9.97 1.91 -7.44 1.94 C-6.73 1.94 -6.02 1.95 -5.28 1.95 C-3.52 1.96 -1.76 1.98 0 2 C0 1.34 0 0.68 0 0 Z " fill="#E0DAE6" transform="translate(330,299)"/>
<path d="M0 0 C0.66 0 1.32 0 2 0 C2 118.14 2 236.28 2 358 C-1 355 -1 355 -1.37 352.36 C-1.37 351.29 -1.37 350.21 -1.37 349.11 C-1.38 347.87 -1.39 346.63 -1.39 345.35 C-1.38 343.97 -1.38 342.59 -1.37 341.21 C-1.37 339.74 -1.37 338.28 -1.38 336.82 C-1.39 332.79 -1.38 328.77 -1.36 324.74 C-1.35 320.4 -1.36 316.06 -1.36 311.72 C-1.37 303.22 -1.36 294.71 -1.34 286.21 C-1.32 276.31 -1.32 266.42 -1.32 256.52 C-1.32 238.88 -1.31 221.23 -1.28 203.58 C-1.26 186.44 -1.24 169.3 -1.24 152.16 C-1.24 151.1 -1.24 150.04 -1.24 148.96 C-1.24 146.83 -1.24 144.7 -1.24 142.57 C-1.24 141.52 -1.24 140.48 -1.24 139.39 C-1.24 138.35 -1.24 137.3 -1.24 136.22 C-1.23 119.91 -1.22 103.6 -1.21 87.29 C-1.2 81.37 -1.2 75.44 -1.2 69.52 C-1.19 60.13 -1.19 50.74 -1.17 41.35 C-1.17 37.06 -1.16 32.76 -1.16 28.47 C-1.16 24.55 -1.15 20.62 -1.14 16.7 C-1.14 15.27 -1.14 13.85 -1.14 12.42 C-1.14 10.49 -1.14 8.57 -1.13 6.64 C-1.13 5.57 -1.13 4.5 -1.13 3.39 C-1 1 -1 1 0 0 Z " fill="#DFD9E5" transform="translate(301,291)"/>
<path d="M0 0 C0.33 0 0.66 0 1 0 C1 22.11 1 44.22 1 67 C-2.46 67.86 -4.91 68.12 -8.41 68.12 C-10.07 68.13 -10.07 68.13 -11.76 68.13 C-12.97 68.13 -14.19 68.12 -15.44 68.12 C-17.37 68.12 -17.37 68.12 -19.35 68.12 C-22.93 68.13 -26.51 68.12 -30.1 68.12 C-33.96 68.11 -37.82 68.11 -41.68 68.11 C-48.37 68.11 -55.07 68.11 -61.76 68.11 C-71.44 68.1 -81.11 68.09 -90.79 68.09 C-106.49 68.09 -122.19 68.08 -137.88 68.08 C-153.14 68.07 -168.39 68.06 -183.64 68.05 C-184.58 68.05 -185.52 68.05 -186.49 68.05 C-191.2 68.05 -195.92 68.05 -200.63 68.05 C-239.75 68.04 -278.88 68.02 -318 68 C-317.67 67.01 -317.34 66.02 -317 65 C-212.72 65 -108.44 65 -1 65 C-0.67 43.55 -0.34 22.1 0 0 Z " fill="#B2A1C5" transform="translate(636,569)"/>
<path d="M0 0 C113.52 0 227.04 0 344 0 C344 0.33 344 0.66 344 1 C230.48 1 116.96 1 0 1 C0 0.67 0 0.34 0 0 Z " fill="#E0DAE6" transform="translate(304,649)"/>
<path d="M0 0 C1.83 -0 1.83 -0 3.7 -0.01 C5.02 0 6.34 0.02 7.69 0.03 C9.06 0.03 10.43 0.03 11.8 0.03 C14.67 0.04 17.54 0.05 20.41 0.08 C24.08 0.1 27.75 0.11 31.41 0.12 C34.92 0.12 38.43 0.14 41.94 0.15 C43.91 0.16 43.91 0.16 45.92 0.17 C47.15 0.18 48.38 0.19 49.64 0.2 C50.72 0.2 51.79 0.21 52.9 0.22 C55.99 0.36 58.92 0.79 61.95 1.36 C61.95 3.01 61.95 4.66 61.95 6.36 C61.45 4.87 61.45 4.87 60.95 3.36 C54.78 3.33 48.62 3.31 42.45 3.3 C40.36 3.3 38.27 3.29 36.19 3.28 C22.07 3.22 8.04 3.54 -6.05 4.36 C-7.33 11.17 -7.14 17.93 -7.08 24.84 C-7.07 26.82 -7.06 28.79 -7.05 30.76 C-7.03 35.61 -6.99 40.46 -6.95 45.31 C-6.93 48.04 -6.92 50.77 -6.91 53.5 C-6.9 56.07 -6.88 58.63 -6.85 61.2 C-6.85 62.36 -6.84 63.52 -6.84 64.71 C-6.83 65.73 -6.82 66.75 -6.82 67.8 C-7.05 70.36 -7.05 70.36 -9.05 73.36 C-9.27 64.28 -9.48 55.21 -9.65 46.13 C-9.73 41.92 -9.82 37.7 -9.92 33.49 C-10.03 29.42 -10.11 25.36 -10.18 21.29 C-10.21 19.74 -10.24 18.19 -10.29 16.64 C-10.35 14.47 -10.38 12.3 -10.41 10.12 C-10.44 8.89 -10.47 7.65 -10.49 6.37 C-10.05 3.36 -10.05 3.36 -8.41 1.46 C-5.44 0.07 -3.28 -0.01 0 0 Z " fill="#BCAECC" transform="translate(558.05029296875,481.6435546875)"/>
<path d="M0 0 C1.05 -0.02 2.09 -0.05 3.17 -0.07 C4.68 -0.08 4.68 -0.08 6.22 -0.09 C7.14 -0.09 8.05 -0.1 9 -0.11 C12.37 0.54 13.39 1.69 15.5 4.38 C16.02 7.4 16.02 7.4 16.05 10.98 C16.06 11.64 16.07 12.31 16.08 12.99 C16.11 15.14 16.11 17.28 16.11 19.42 C16.13 20.73 16.14 22.05 16.16 23.4 C16.21 28.31 16.23 33.22 16.25 38.12 C16.33 49.1 16.41 60.07 16.5 71.38 C49.66 71.87 49.66 71.87 83.5 72.38 C83.83 71.72 84.16 71.06 84.5 70.38 C84.5 71.37 84.5 72.36 84.5 73.38 C75.83 73.53 67.17 73.68 58.5 73.82 C54.48 73.88 50.45 73.95 46.43 74.02 C42.54 74.09 38.66 74.16 34.78 74.22 C33.29 74.24 31.81 74.27 30.33 74.3 C28.26 74.33 26.18 74.37 24.1 74.4 C22.92 74.42 21.74 74.44 20.52 74.46 C17.5 74.38 17.5 74.38 13.5 73.38 C13.17 50.27 12.84 27.18 12.5 3.38 C-1.36 2.88 -1.36 2.88 -15.5 2.38 C-10.2 -0.27 -5.83 0.01 0 0 Z " fill="#C1B4D0" transform="translate(535.5,379.625)"/>
<path d="M0 0 C1.37 -0 1.37 -0 2.77 -0.01 C3.77 -0 4.76 0.01 5.79 0.01 C6.85 0.01 7.9 0.01 8.99 0.01 C12.48 0.01 15.97 0.03 19.46 0.05 C21.87 0.05 24.29 0.05 26.71 0.05 C33.08 0.06 39.44 0.08 45.81 0.1 C52.3 0.12 58.8 0.13 65.29 0.14 C78.04 0.16 90.79 0.2 103.54 0.24 C103.21 0.9 102.88 1.56 102.54 2.24 C95.13 3.57 87.3 3.33 79.79 3.37 C78.59 3.37 78.59 3.37 77.37 3.38 C71.66 3.36 71.66 3.36 70.54 2.24 C68.11 2.15 65.7 2.11 63.27 2.13 C62.5 2.13 61.74 2.13 60.96 2.13 C58.43 2.13 55.91 2.14 53.38 2.14 C51.63 2.14 49.88 2.15 48.14 2.15 C43.53 2.15 38.92 2.16 34.31 2.17 C29.61 2.18 24.92 2.19 20.22 2.19 C10.99 2.2 1.77 2.22 -7.46 2.24 C-4.31 0.14 -3.59 -0.01 0 0 Z " fill="#E0DAE6" transform="translate(672.4608612060547,379.7594909667969)"/>
<path d="M0 0 C2.43 2.43 2.24 3.72 2.27 7.04 C2.27 7.74 2.26 8.44 2.26 9.16 C2.26 9.89 2.27 10.63 2.27 11.39 C2.28 13.83 2.27 16.27 2.27 18.71 C2.27 20.41 2.27 22.1 2.27 23.8 C2.27 27.35 2.27 30.9 2.26 34.46 C2.25 39.01 2.26 43.57 2.27 48.13 C2.28 51.63 2.27 55.13 2.27 58.63 C2.27 60.31 2.27 61.99 2.27 63.67 C2.28 66.02 2.27 68.37 2.26 70.71 C2.26 71.41 2.27 72.11 2.27 72.83 C2.24 76.45 2.07 77.89 0 81 C-0.15 70.88 -0.3 60.76 -0.44 50.65 C-0.51 45.95 -0.58 41.25 -0.65 36.55 C-0.72 32.02 -0.78 27.49 -0.84 22.95 C-0.87 21.22 -0.89 19.49 -0.92 17.76 C-0.96 15.34 -0.99 12.92 -1.02 10.5 C-1.03 9.78 -1.05 9.06 -1.06 8.32 C-1.09 5.25 -0.98 2.94 0 0 Z " fill="#AE9DC3" transform="translate(649,289)"/>
<path d="M0 0 C0.33 0 0.66 0 1 0 C1.33 37.62 1.66 75.24 2 114 C1.34 112.68 0.68 111.36 0 110 C-0.99 109.67 -1.98 109.34 -3 109 C-2.67 107.68 -2.34 106.36 -2 105 C-1.67 105.33 -1.34 105.66 -1 106 C-0.67 71.02 -0.34 36.04 0 0 Z " fill="#E0DAE6" transform="translate(909,384)"/>
<path d="M0 0 C1.43 -0.01 1.43 -0.01 2.89 -0.02 C3.94 -0.02 4.98 -0.02 6.05 -0.02 C7.12 -0.03 8.18 -0.03 9.28 -0.03 C11.55 -0.04 13.82 -0.04 16.09 -0.04 C19.54 -0.04 22.99 -0.06 26.44 -0.08 C28.65 -0.08 30.85 -0.08 33.05 -0.09 C34.59 -0.1 34.59 -0.1 36.16 -0.11 C41.97 -0.09 46.95 0.47 52.52 2.15 C52.52 2.48 52.52 2.81 52.52 3.15 C51.25 2.98 49.98 2.82 48.68 2.65 C43.4 2.07 38.17 2 32.86 2.01 C31.88 2.01 30.9 2.01 29.89 2.01 C27.83 2.01 25.78 2.01 23.72 2.01 C20.56 2.02 17.41 2.01 14.25 2.01 C12.24 2.01 10.24 2.01 8.24 2.01 C7.29 2.01 6.35 2.01 5.37 2.01 C4.5 2.01 3.63 2.01 2.73 2.02 C1.96 2.02 1.19 2.02 0.4 2.02 C-1.57 2.03 -1.57 2.03 -3.48 3.15 C-3.81 17.34 -4.14 31.53 -4.48 46.15 C-4.81 46.15 -5.14 46.15 -5.48 46.15 C-5.51 39.75 -5.53 33.36 -5.54 26.97 C-5.54 24.8 -5.55 22.62 -5.56 20.45 C-5.57 17.33 -5.58 14.21 -5.58 11.09 C-5.59 10.11 -5.59 9.13 -5.6 8.12 C-5.6 7.22 -5.6 6.32 -5.6 5.39 C-5.6 4.59 -5.6 3.8 -5.6 2.97 C-5.36 -0.68 -3.13 0.01 0 0 Z " fill="#E0DAE6" transform="translate(381.484619140625,411.854736328125)"/>
<path d="M0 0 C4.54 -0.03 9.08 -0.05 13.62 -0.06 C14.91 -0.07 16.2 -0.08 17.52 -0.09 C18.76 -0.09 20.01 -0.09 21.29 -0.1 C22.43 -0.1 23.57 -0.11 24.75 -0.11 C27.92 -0 30.89 0.4 34 1 C34 2.65 34 4.3 34 6 C33.5 4.51 33.5 4.51 33 3 C22.11 3 11.22 3 0 3 C0 2.01 0 1.02 0 0 Z " fill="#E0DAE6" transform="translate(586,482)"/>
<path d="M0 0 C0.33 0 0.66 0 1 0 C1 31.35 1 62.7 1 95 C0.67 95 0.34 95 0 95 C0 63.65 0 32.3 0 0 Z " fill="#E0DAE6" transform="translate(942,386)"/>
<path d="M0 0 C0.33 0 0.66 0 1 0 C1 28.38 1 56.76 1 86 C0.67 86 0.34 86 0 86 C0 57.62 0 29.24 0 0 Z " fill="#E0DAE6" transform="translate(376,469)"/>
<path d="M0 0 C1.86 2.79 2.42 4.2 3.06 7.38 C3.22 8.13 3.37 8.88 3.54 9.65 C3.69 10.42 3.84 11.2 4 12 C4.26 13.15 4.26 13.15 4.52 14.33 C5.34 18.9 5.18 23.49 5.19 28.12 C5.2 29.11 5.21 30.09 5.22 31.1 C5.24 37.94 4.45 44.32 3 51 C2.67 51 2.34 51 2 51 C2 43.74 2 36.48 2 29 C2.66 29 3.32 29 4 29 C4 28.01 4 27.02 4 26 C3.34 26 2.68 26 2 26 C2.02 25.25 2.05 24.5 2.07 23.73 C2.2 16.47 2.32 8.65 -1 2 C-0.67 1.34 -0.34 0.68 0 0 Z " fill="#E0DAE6" transform="translate(501,440)"/>
<path d="M0 0 C0.99 0 0.99 0 2.01 0 C4.13 0.01 6.25 0.02 8.37 0.04 C9.8 0.04 11.24 0.04 12.68 0.05 C16.2 0.06 19.72 0.08 23.24 0.1 C22.91 0.76 22.58 1.42 22.24 2.1 C12.17 3.9 1.43 3.2 -8.76 3.1 C-8.76 2.44 -8.76 1.78 -8.76 1.1 C-5.84 -0.36 -3.26 -0.01 0 0 Z " fill="#BFB2CF" transform="translate(752.7578125,379.90234375)"/>
<path d="M0 0 C1.44 -0 1.44 -0 2.91 -0 C4.41 0 4.41 0 5.95 0.01 C6.94 0 7.93 0 8.95 -0 C13.81 0 18.43 0.11 23.2 1.13 C20.52 3.82 19.14 3.39 15.39 3.4 C14.23 3.4 13.08 3.4 11.88 3.41 C10.67 3.4 9.45 3.39 8.2 3.38 C6.99 3.39 5.77 3.4 4.52 3.41 C2.79 3.4 2.79 3.4 1.02 3.4 C-0.58 3.4 -0.58 3.4 -2.21 3.39 C-4.8 3.13 -4.8 3.13 -6.8 1.13 C-4.35 -0.09 -2.74 0 0 0 Z " fill="#E0DAE6" transform="translate(525.796875,553.8671875)"/>
<path d="M0 0 C1.01 -0 2.02 -0 3.06 -0 C4.64 0 4.64 0 6.26 0.01 C7.31 0 8.35 0 9.43 -0 C10.95 -0 10.95 -0 12.5 0 C13.89 0 13.89 0 15.3 0 C17.94 0.13 20.37 0.55 22.95 1.13 C20.95 3.13 20.95 3.13 18.24 3.36 C17.12 3.35 16 3.34 14.85 3.33 C13.03 3.32 13.03 3.32 11.18 3.31 C9.9 3.29 8.63 3.28 7.32 3.26 C6.05 3.25 4.77 3.24 3.45 3.23 C0.28 3.21 -2.88 3.17 -6.05 3.13 C-6.38 2.47 -6.71 1.81 -7.05 1.13 C-4.54 -0.12 -2.81 0 0 0 Z " fill="#E0DAE6" transform="translate(353.05078125,553.8671875)"/>
<path d="M0 0 C1.89 -0.02 1.89 -0.02 3.81 -0.04 C7 0.19 7 0.19 10 2.19 C7.35 4.83 -0.37 3.37 -3.94 3.38 C-5.16 3.39 -6.38 3.4 -7.63 3.41 C-9.37 3.42 -9.37 3.42 -11.15 3.42 C-12.76 3.42 -12.76 3.42 -14.4 3.43 C-17 3.19 -17 3.19 -19 1.19 C-12.67 0.45 -6.37 0.06 0 0 Z " fill="#E0DAE6" transform="translate(640,553.8125)"/>
<path d="M0 0 C1.11 -0.01 2.22 -0.02 3.37 -0.04 C4.96 -0.04 4.96 -0.04 6.59 -0.04 C7.57 -0.05 8.54 -0.05 9.55 -0.06 C12.06 0.19 12.06 0.19 15.06 2.19 C10.83 4.3 5.21 3.37 0.56 3.38 C-0.6 3.39 -1.77 3.4 -2.97 3.41 C-4.64 3.42 -4.64 3.42 -6.34 3.42 C-7.37 3.42 -8.39 3.43 -9.45 3.43 C-11.94 3.19 -11.94 3.19 -13.94 1.19 C-9.83 -0.86 -4.51 0 0 0 Z " fill="#E0DAE6" transform="translate(728.9375,553.8125)"/>
<path d="M0 0 C15.84 0 31.68 0 48 0 C48 0.33 48 0.66 48 1 C47.12 1.02 47.12 1.02 46.23 1.03 C40.16 1.14 34.1 1.25 28.03 1.37 C25.76 1.42 23.5 1.46 21.23 1.5 C17.98 1.55 14.73 1.62 11.48 1.68 C10.46 1.7 9.44 1.72 8.39 1.73 C7.45 1.75 6.51 1.77 5.54 1.79 C4.71 1.81 3.88 1.83 3.02 1.84 C0.93 1.88 0.93 1.88 -1 3 C-0.67 2.01 -0.34 1.02 0 0 Z " fill="#E0DAE6" transform="translate(747,412)"/>
<path d="M0 0 C2.63 -0.05 5.25 -0.09 7.88 -0.12 C8.62 -0.14 9.37 -0.16 10.14 -0.18 C12.09 -0.19 14.05 -0.1 16 0 C16.66 0.66 17.32 1.32 18 2 C11.63 2.75 5.42 3.1 -1 3 C-0.67 2.01 -0.34 1.02 0 0 Z " fill="#C0B3CF" transform="translate(777,380)"/>
<path d="M0 0 C5.28 0 10.56 0 16 0 C16 0.66 16 1.32 16 2 C10.33 3.23 4.76 3.09 -1 3 C-0.67 2.01 -0.34 1.02 0 0 Z " fill="#B5A6C8" transform="translate(632,380)"/>
<path d="M0 0 C0.33 0 0.66 0 1 0 C1 4.95 1 9.9 1 15 C-2 12 -2 12 -2.29 9.52 C-2.26 8.63 -2.22 7.73 -2.19 6.81 C-2.16 5.91 -2.13 5.01 -2.11 4.08 C-2.07 3.39 -2.04 2.71 -2 2 C-1.34 2 -0.68 2 0 2 C0 1.34 0 0.68 0 0 Z " fill="#E0DAE6" transform="translate(796,383)"/>
<path d="M0 0 C0.33 0 0.66 0 1 0 C1 6.27 1 12.54 1 19 C0.67 19 0.34 19 0 19 C0 12.73 0 6.46 0 0 Z " fill="#E0DAE6" transform="translate(942,532)"/>
<path d="M0 0 C0.33 0.99 0.66 1.98 1 3 C0.01 3.5 0.01 3.5 -1 4 C-0.67 2.68 -0.34 1.36 0 0 Z " fill="#6B4B94" transform="translate(467,487)"/>
<path d="M0 0 C1 4 1 4 1 4 Z " fill="#E0DAE6" transform="translate(840,542)"/>
<path d="M0 0 C0.33 0.99 0.66 1.98 1 3 C0.34 2.67 -0.32 2.34 -1 2 C-0.67 1.34 -0.34 0.68 0 0 Z " fill="#6B4B94" transform="translate(460,499)"/>
<path d="M0 0 C3 1 3 1 3 1 Z " fill="#E0DAE6" transform="translate(441,552)"/>
<path d="" fill="#6B4B94" transform="translate(0,0)"/>
<path d="M0 0 C0.33 0.66 0.66 1.32 1 2 C0.34 1.67 -0.32 1.34 -1 1 C-0.67 0.67 -0.34 0.34 0 0 Z " fill="#6B4B94" transform="translate(398,522)"/>
<path d="" fill="#E0DAE6" transform="translate(0,0)"/>
<path d="" fill="#E0DAE6" transform="translate(0,0)"/>
<path d="" fill="#E0DAE6" transform="translate(0,0)"/>
<path d="" fill="#927AAF" transform="translate(0,0)"/>
<path d="M0 0 C0.66 0.66 1.32 1.32 2 2 C1.34 2 0.68 2 0 2 C0 1.34 0 0.68 0 0 Z " fill="#E0DAE6" transform="translate(870,429)"/>
<path d="M0 0 C0.66 0.66 1.32 1.32 2 2 C1.34 2 0.68 2 0 2 C0 1.34 0 0.68 0 0 Z " fill="#E0DAE6" transform="translate(843,383)"/>
<path d="M0 0 C2 1 2 1 2 1 Z " fill="#E0DAE6" transform="translate(453,548)"/>
<path d="M0 0 C2 1 2 1 2 1 Z " fill="#E0DAE6" transform="translate(455,547)"/>
<path d="" fill="#6B4B94" transform="translate(0,0)"/>
<path d="M0 0 C2 1 2 1 2 1 Z " fill="#E0DAE6" transform="translate(459,545)"/>
<path d="M0 0 C2 1 2 1 2 1 Z " fill="#E0DAE6" transform="translate(461,544)"/>
<path d="" fill="#6B4B94" transform="translate(0,0)"/>
<path d="M0 0 C2 1 2 1 2 1 Z " fill="#6B4B94" transform="translate(425,520)"/>
<path d="M0 0 C2 1 2 1 2 1 Z " fill="#6B4B94" transform="translate(430,519)"/>
<path d="M0 0 C2 1 2 1 2 1 Z " fill="#A592BD" transform="translate(432,518)"/>
<path d="M0 0 C2 1 2 1 2 1 Z " fill="#6B4B94" transform="translate(437,517)"/>
<path d="M0 0 C2 1 2 1 2 1 Z " fill="#6B4B94" transform="translate(449,509)"/>
<path d="" fill="#E0DAE6" transform="translate(0,0)"/>
<path d="M0 0 C2 1 2 1 2 1 Z " fill="#E0DAE6" transform="translate(453,506)"/>
<path d="" fill="#E0DAE6" transform="translate(0,0)"/>
<path d="" fill="#E0DAE6" transform="translate(0,0)"/>
<path d="" fill="#E0DAE6" transform="translate(0,0)"/>
<path d="" fill="#6B4B94" transform="translate(0,0)"/>
<path d="" fill="#E0DAE6" transform="translate(0,0)"/>
<path d="" fill="#6B4B94" transform="translate(0,0)"/>
<path d="" fill="#E0DAE6" transform="translate(0,0)"/>
<path d="" fill="#E0DAE6" transform="translate(0,0)"/>
<path d="" fill="#6B4B94" transform="translate(0,0)"/>
<path d="" fill="#6B4B94" transform="translate(0,0)"/>
<path d="" fill="#6B4B94" transform="translate(0,0)"/>
<path d="" fill="#6B4B94" transform="translate(0,0)"/>
<path d="" fill="#6B4B94" transform="translate(0,0)"/>
<path d="" fill="#E0DAE6" transform="translate(0,0)"/>
<path d="" fill="#E0DAE6" transform="translate(0,0)"/>
<path d="" fill="#6B4B94" transform="translate(0,0)"/>
<path d="" fill="#E0DAE6" transform="translate(0,0)"/>
<path d="" fill="#E0DAE6" transform="translate(0,0)"/>
<path d="" fill="#E0DAE6" transform="translate(0,0)"/>
<path d="" fill="#E0DAE6" transform="translate(0,0)"/>
<path d="" fill="#E0DAE6" transform="translate(0,0)"/>
<path d="" fill="#E0DAE6" transform="translate(0,0)"/>
<path d="" fill="#E0DAE6" transform="translate(0,0)"/>
<path d="" fill="#E0DAE6" transform="translate(0,0)"/>
<path d="" fill="#E0DAE6" transform="translate(0,0)"/>
<path d="" fill="#E0DAE6" transform="translate(0,0)"/>
<path d="" fill="#6B4B94" transform="translate(0,0)"/>
<path d="" fill="#E0DAE6" transform="translate(0,0)"/>
<path d="" fill="#E0DAE6" transform="translate(0,0)"/>
<path d="" fill="#E0DAE6" transform="translate(0,0)"/>
<path d="" fill="#E0DAE6" transform="translate(0,0)"/>
<path d="" fill="#E0DAE6" transform="translate(0,0)"/>
<path d="" fill="#E0DAE6" transform="translate(0,0)"/>
<path d="" fill="#6B4B94" transform="translate(0,0)"/>
<path d="" fill="#E0DAE6" transform="translate(0,0)"/>
<path d="" fill="#E0DAE6" transform="translate(0,0)"/>
<path d="" fill="#E0DAE6" transform="translate(0,0)"/>
<path d="" fill="#E0DAE6" transform="translate(0,0)"/>
<path d="" fill="#E0DAE6" transform="translate(0,0)"/>
<path d="" fill="#E0DAE6" transform="translate(0,0)"/>
<path d="" fill="#E0DAE6" transform="translate(0,0)"/>
<path d="" fill="#E0DAE6" transform="translate(0,0)"/>
<path d="" fill="#E0DAE6" transform="translate(0,0)"/>
<path d="" fill="#E0DAE6" transform="translate(0,0)"/>
<path d="" fill="#E0DAE6" transform="translate(0,0)"/>
<path d="" fill="#6B4B94" transform="translate(0,0)"/>
<path d="" fill="#6B4B94" transform="translate(0,0)"/>
<path d="" fill="#E0DAE6" transform="translate(0,0)"/>
<path d="" fill="#6B4B94" transform="translate(0,0)"/>
<path d="" fill="#E0DAE6" transform="translate(0,0)"/>
<path d="" fill="#6B4B94" transform="translate(0,0)"/>
<path d="" fill="#6B4B94" transform="translate(0,0)"/>
<path d="" fill="#E0DAE6" transform="translate(0,0)"/>
<path d="" fill="#E0DAE6" transform="translate(0,0)"/>
<path d="" fill="#E0DAE6" transform="translate(0,0)"/>
<path d="" fill="#E0DAE6" transform="translate(0,0)"/>
<path d="" fill="#E0DAE6" transform="translate(0,0)"/>
<path d="" fill="#E0DAE6" transform="translate(0,0)"/>
<path d="" fill="#E0DAE6" transform="translate(0,0)"/>
<path d="" fill="#E0DAE6" transform="translate(0,0)"/>
<path d="" fill="#E0DAE6" transform="translate(0,0)"/>
<path d="" fill="#E0DAE6" transform="translate(0,0)"/>
<path d="" fill="#E0DAE6" transform="translate(0,0)"/>
<path d="" fill="#E0DAE6" transform="translate(0,0)"/>
<path d="" fill="#E0DAE6" transform="translate(0,0)"/>
<path d="" fill="#E0DAE6" transform="translate(0,0)"/>
<path d="" fill="#E0DAE6" transform="translate(0,0)"/>
<path d="" fill="#E0DAE6" transform="translate(0,0)"/>
<path d="" fill="#E0DAE6" transform="translate(0,0)"/>
<path d="" fill="#E0DAE6" transform="translate(0,0)"/>
<path d="" fill="#E0DAE6" transform="translate(0,0)"/>
<path d="" fill="#E0DAE6" transform="translate(0,0)"/>
<path d="" fill="#6B4B94" transform="translate(0,0)"/>
<path d="" fill="#E0DAE6" transform="translate(0,0)"/>
<path d="" fill="#E0DAE6" transform="translate(0,0)"/>
<path d="" fill="#6B4B94" transform="translate(0,0)"/>
<path d="" fill="#E0DAE6" transform="translate(0,0)"/>
<path d="" fill="#6B4B94" transform="translate(0,0)"/>
<path d="" fill="#6B4B94" transform="translate(0,0)"/>
<path d="" fill="#6B4B94" transform="translate(0,0)"/>
<path d="" fill="#E0DAE6" transform="translate(0,0)"/>
<path d="" fill="#E0DAE6" transform="translate(0,0)"/>
<path d="" fill="#6B4B94" transform="translate(0,0)"/>
<path d="" fill="#6B4B94" transform="translate(0,0)"/>
<path d="" fill="#E0DAE6" transform="translate(0,0)"/>
<path d="" fill="#6B4B94" transform="translate(0,0)"/>
</svg>
